<mxfile host="app.diagrams.net" modified="2021-05-31T04:00:37.456Z" agent="5.0 (Windows NT 10.0; WOW64) AppleWebKit/537.36 (KHTML, like Gecko) Chrome/75.0.0.8793 Safari/537.36" etag="Qv6kLjtBzDkMUvTx8-hN" version="14.7.3" type="github">
  <diagram id="6a731a19-8d31-9384-78a2-239565b7b9f0" name="Page-1">
    <mxGraphModel dx="2006" dy="1277" grid="1" gridSize="10" guides="1" tooltips="1" connect="1" arrows="1" fold="1" page="1" pageScale="1" pageWidth="1169" pageHeight="827" background="none" math="0" shadow="0">
      <root>
        <mxCell id="0" />
        <mxCell id="1" parent="0" />
        <mxCell id="f_UWW3XsLCHWjXA5f-K4-194" value="" style="strokeColor=#FFFFFF;fillColor=#BAC8D3;fontSize=18;strokeWidth=2;fontFamily=Helvetica;html=1;opacity=60;fontStyle=4" vertex="1" parent="1">
          <mxGeometry x="1537.3333333333333" y="1730.5" width="646.6666666666666" height="100" as="geometry" />
        </mxCell>
        <mxCell id="f_UWW3XsLCHWjXA5f-K4-191" value="" style="strokeColor=#FFFFFF;fillColor=#BAC8D3;fontSize=18;strokeWidth=2;fontFamily=Helvetica;html=1;opacity=90;" vertex="1" parent="1">
          <mxGeometry x="1537.3333333333333" y="1630.5" width="646.6666666666666" height="100" as="geometry" />
        </mxCell>
        <mxCell id="56" value="解冻" style="strokeColor=#BAC8D3;fillColor=#23445D;fontSize=24;strokeWidth=2;fontFamily=Helvetica;html=1;fontColor=#FFFFFF;fontStyle=0;spacingBottom=8;spacingRight=0;spacingLeft=83;" parent="1" vertex="1">
          <mxGeometry x="154.33" y="827" width="2030" height="80" as="geometry" />
        </mxCell>
        <mxCell id="59" value="v 1.0" style="strokeColor=#BAC8D3;fillColor=#5d7f99;fontSize=19;strokeWidth=2;fontFamily=Helvetica;html=1;labelBackgroundColor=none;fontColor=#FFFFFF;" parent="1" vertex="1">
          <mxGeometry x="154" y="850.5" width="90" height="80" as="geometry" />
        </mxCell>
        <mxCell id="67" value="阶段" style="strokeColor=#BAC8D3;fillColor=#23445D;fontSize=24;strokeWidth=2;horizontal=0;fontFamily=Helvetica;html=1;fontColor=#FFFFFF;fontStyle=0" parent="1" vertex="1">
          <mxGeometry x="154.33" y="930.5" width="94" height="899.5" as="geometry" />
        </mxCell>
        <mxCell id="68" value="" style="strokeColor=#FFFFFF;fillColor=#BAC8D3;fontSize=18;strokeWidth=2;fontFamily=Helvetica;html=1;opacity=60;" parent="1" vertex="1">
          <mxGeometry x="244" y="930.5" width="646.6666666666666" height="100" as="geometry" />
        </mxCell>
        <mxCell id="69" value="" style="strokeColor=#FFFFFF;fillColor=#BAC8D3;fontSize=18;strokeWidth=2;fontFamily=Helvetica;html=1;opacity=90;" parent="1" vertex="1">
          <mxGeometry x="244" y="1030.5" width="646.6666666666666" height="100" as="geometry" />
        </mxCell>
        <mxCell id="70" value="" style="strokeColor=#FFFFFF;fillColor=#BAC8D3;fontSize=18;strokeWidth=2;fontFamily=Helvetica;html=1;opacity=60;" parent="1" vertex="1">
          <mxGeometry x="244" y="1130.5" width="646.6666666666666" height="100" as="geometry" />
        </mxCell>
        <mxCell id="71" value="" style="strokeColor=#FFFFFF;fillColor=#BAC8D3;fontSize=18;strokeWidth=2;fontFamily=Helvetica;html=1;opacity=90;" parent="1" vertex="1">
          <mxGeometry x="244" y="1230.5" width="646.6666666666666" height="100" as="geometry" />
        </mxCell>
        <mxCell id="72" value="" style="strokeColor=#FFFFFF;fillColor=#BAC8D3;fontSize=18;strokeWidth=2;fontFamily=Helvetica;html=1;opacity=60;" parent="1" vertex="1">
          <mxGeometry x="244" y="1330.5" width="646.6666666666666" height="100" as="geometry" />
        </mxCell>
        <mxCell id="73" value="" style="strokeColor=#FFFFFF;fillColor=#BAC8D3;fontSize=18;strokeWidth=2;fontFamily=Helvetica;html=1;opacity=90;" parent="1" vertex="1">
          <mxGeometry x="244" y="1430.5" width="646.6666666666666" height="100" as="geometry" />
        </mxCell>
        <mxCell id="74" value="" style="strokeColor=#FFFFFF;fillColor=#BAC8D3;fontSize=18;strokeWidth=2;fontFamily=Helvetica;html=1;opacity=60;" parent="1" vertex="1">
          <mxGeometry x="244" y="1530.5" width="646.6666666666666" height="100" as="geometry" />
        </mxCell>
        <mxCell id="75" value="" style="strokeColor=#FFFFFF;fillColor=#BAC8D3;fontSize=18;strokeWidth=2;fontFamily=Helvetica;html=1;opacity=60;" parent="1" vertex="1">
          <mxGeometry x="890.6666666666666" y="930.5" width="647" height="100" as="geometry" />
        </mxCell>
        <mxCell id="76" value="" style="strokeColor=#FFFFFF;fillColor=#BAC8D3;fontSize=18;strokeWidth=2;fontFamily=Helvetica;html=1;opacity=90;" parent="1" vertex="1">
          <mxGeometry x="890.6666666666666" y="1030.5" width="646.6666666666666" height="100" as="geometry" />
        </mxCell>
        <mxCell id="77" value="" style="strokeColor=#FFFFFF;fillColor=#BAC8D3;fontSize=18;strokeWidth=2;fontFamily=Helvetica;html=1;opacity=60;" parent="1" vertex="1">
          <mxGeometry x="890.6666666666666" y="1130.5" width="646.6666666666666" height="100" as="geometry" />
        </mxCell>
        <mxCell id="78" value="" style="strokeColor=#FFFFFF;fillColor=#BAC8D3;fontSize=18;strokeWidth=2;fontFamily=Helvetica;html=1;opacity=90;" parent="1" vertex="1">
          <mxGeometry x="890.6666666666666" y="1230.5" width="646.6666666666666" height="100" as="geometry" />
        </mxCell>
        <mxCell id="79" value="" style="strokeColor=#FFFFFF;fillColor=#BAC8D3;fontSize=18;strokeWidth=2;fontFamily=Helvetica;html=1;opacity=60;" parent="1" vertex="1">
          <mxGeometry x="890.6666666666666" y="1330.5" width="646.6666666666666" height="100" as="geometry" />
        </mxCell>
        <mxCell id="80" value="" style="strokeColor=#FFFFFF;fillColor=#BAC8D3;fontSize=18;strokeWidth=2;fontFamily=Helvetica;html=1;opacity=90;" parent="1" vertex="1">
          <mxGeometry x="890.6666666666666" y="1430.5" width="646.6666666666666" height="100" as="geometry" />
        </mxCell>
        <mxCell id="81" value="" style="strokeColor=#FFFFFF;fillColor=#BAC8D3;fontSize=18;strokeWidth=2;fontFamily=Helvetica;html=1;opacity=60;fontStyle=4" parent="1" vertex="1">
          <mxGeometry x="890.6666666666666" y="1530.5" width="646.6666666666666" height="100" as="geometry" />
        </mxCell>
        <mxCell id="82" value="" style="strokeColor=#FFFFFF;fillColor=#BAC8D3;fontSize=18;strokeWidth=2;fontFamily=Helvetica;html=1;opacity=60;" parent="1" vertex="1">
          <mxGeometry x="1537.3333333333333" y="930.5" width="647" height="100" as="geometry" />
        </mxCell>
        <mxCell id="83" value="" style="strokeColor=#FFFFFF;fillColor=#BAC8D3;fontSize=18;strokeWidth=2;fontFamily=Helvetica;html=1;opacity=90;" parent="1" vertex="1">
          <mxGeometry x="1537.3333333333333" y="1030.5" width="646.6666666666666" height="100" as="geometry" />
        </mxCell>
        <mxCell id="84" value="" style="strokeColor=#FFFFFF;fillColor=#BAC8D3;fontSize=18;strokeWidth=2;fontFamily=Helvetica;html=1;opacity=60;" parent="1" vertex="1">
          <mxGeometry x="1537.3333333333333" y="1130.5" width="646.6666666666666" height="100" as="geometry" />
        </mxCell>
        <mxCell id="85" value="" style="strokeColor=#FFFFFF;fillColor=#BAC8D3;fontSize=18;strokeWidth=2;fontFamily=Helvetica;html=1;opacity=90;" parent="1" vertex="1">
          <mxGeometry x="1537.3333333333333" y="1230.5" width="646.6666666666666" height="100" as="geometry" />
        </mxCell>
        <mxCell id="86" value="" style="strokeColor=#FFFFFF;fillColor=#BAC8D3;fontSize=18;strokeWidth=2;fontFamily=Helvetica;html=1;opacity=60;" parent="1" vertex="1">
          <mxGeometry x="1537.3333333333333" y="1330.5" width="646.6666666666666" height="100" as="geometry" />
        </mxCell>
        <mxCell id="87" value="" style="strokeColor=#FFFFFF;fillColor=#BAC8D3;fontSize=18;strokeWidth=2;fontFamily=Helvetica;html=1;opacity=90;" parent="1" vertex="1">
          <mxGeometry x="1537.3333333333333" y="1430.5" width="646.6666666666666" height="100" as="geometry" />
        </mxCell>
        <mxCell id="88" value="" style="strokeColor=#FFFFFF;fillColor=#BAC8D3;fontSize=18;strokeWidth=2;fontFamily=Helvetica;html=1;opacity=60;fontStyle=4" parent="1" vertex="1">
          <mxGeometry x="1537.3333333333333" y="1530.5" width="646.6666666666666" height="100" as="geometry" />
        </mxCell>
        <mxCell id="91" value="" style="rounded=1;fillColor=#23445D;strokeColor=none;strokeWidth=2;fontFamily=Helvetica;html=1;gradientColor=none;" parent="1" vertex="1">
          <mxGeometry x="498" y="930" width="172.9" height="94.5" as="geometry" />
        </mxCell>
        <mxCell id="98" value="" style="rounded=1;fillColor=#23445D;strokeColor=none;strokeWidth=2;fontFamily=Helvetica;html=1;gradientColor=none;" parent="1" vertex="1">
          <mxGeometry x="1020" y="930.5" width="287.83" height="109.5" as="geometry" />
        </mxCell>
        <mxCell id="99" value="" style="rounded=1;fillColor=#23445D;strokeColor=none;strokeWidth=2;gradientColor=none;fontFamily=Helvetica;html=1;" parent="1" vertex="1">
          <mxGeometry x="2011.5" y="1480" width="148.5" height="90" as="geometry" />
        </mxCell>
        <mxCell id="f_UWW3XsLCHWjXA5f-K4-162" value="" style="edgeStyle=orthogonalEdgeStyle;rounded=0;orthogonalLoop=1;jettySize=auto;html=1;" edge="1" parent="1" source="103">
          <mxGeometry relative="1" as="geometry">
            <mxPoint x="1224.9149659863942" y="1585.5" as="targetPoint" />
          </mxGeometry>
        </mxCell>
        <mxCell id="106" value="" style="rounded=1;fillColor=#23445D;strokeColor=none;strokeWidth=2;gradientColor=none;fontFamily=Helvetica;html=1;" parent="1" vertex="1">
          <mxGeometry x="1030" y="1440" width="250" height="90" as="geometry" />
        </mxCell>
        <mxCell id="109" value="" style="rounded=1;fillColor=#23445D;strokeColor=none;strokeWidth=2;gradientColor=none;fontFamily=Helvetica;html=1;" parent="1" vertex="1">
          <mxGeometry x="2009.9951700680272" y="1230" width="127" height="50" as="geometry" />
        </mxCell>
        <mxCell id="111" value="" style="rounded=1;fillColor=#23445D;strokeColor=none;strokeWidth=2;gradientColor=none;fontFamily=Helvetica;html=1;" parent="1" vertex="1">
          <mxGeometry x="1670" y="938.25" width="221.92" height="84.5" as="geometry" />
        </mxCell>
        <mxCell id="116" value="" style="edgeStyle=elbowEdgeStyle;elbow=horizontal;strokeWidth=3;strokeColor=#0C343D;fontFamily=Helvetica;html=1;" parent="1" target="93" edge="1">
          <mxGeometry x="6.448979591836746" y="830.5" width="131.97278911564624" height="100" as="geometry">
            <mxPoint x="605.3537414965988" y="1380.5" as="sourcePoint" />
            <mxPoint x="138.421768707483" y="830.5" as="targetPoint" />
          </mxGeometry>
        </mxCell>
        <mxCell id="117" value="" style="edgeStyle=elbowEdgeStyle;elbow=horizontal;strokeWidth=3;strokeColor=#0C343D;fontFamily=Helvetica;html=1;" parent="1" target="94" edge="1">
          <mxGeometry x="6.448979591836746" y="830.5" width="131.97278911564624" height="100" as="geometry">
            <mxPoint x="605.3537414965988" y="1380.5" as="sourcePoint" />
            <mxPoint x="138.421768707483" y="830.5" as="targetPoint" />
          </mxGeometry>
        </mxCell>
        <mxCell id="118" value="" style="edgeStyle=elbowEdgeStyle;elbow=horizontal;strokeWidth=3;strokeColor=#0C343D;fontFamily=Helvetica;html=1;" parent="1" target="94" edge="1">
          <mxGeometry x="6.448979591836746" y="830.5" width="131.97278911564624" height="100" as="geometry">
            <mxPoint x="605.3537414965988" y="1480.5" as="sourcePoint" />
            <mxPoint x="138.421768707483" y="830.5" as="targetPoint" />
            <Array as="points">
              <mxPoint x="668.952380952381" y="1434.5" />
            </Array>
          </mxGeometry>
        </mxCell>
        <mxCell id="121" value="" style="edgeStyle=elbowEdgeStyle;elbow=horizontal;strokeWidth=3;strokeColor=#0C343D;fontFamily=Helvetica;html=1;" parent="1" source="104" edge="1">
          <mxGeometry x="6.448979591836746" y="830.5" width="131.97278911564624" height="100" as="geometry">
            <mxPoint x="6.448979591836746" y="930.5" as="sourcePoint" />
            <mxPoint x="1161.4149659863942" y="1280.5" as="targetPoint" />
          </mxGeometry>
        </mxCell>
        <mxCell id="122" value="" style="edgeStyle=elbowEdgeStyle;elbow=horizontal;strokeWidth=3;strokeColor=#0C343D;fontFamily=Helvetica;html=1;" parent="1" source="91" target="98" edge="1">
          <mxGeometry x="6.448979591836746" y="830.5" width="131.97278911564624" height="100" as="geometry">
            <mxPoint x="6.448979591836746" y="930.5" as="sourcePoint" />
            <mxPoint x="138.421768707483" y="830.5" as="targetPoint" />
            <Array as="points">
              <mxPoint x="1220" y="981" />
            </Array>
          </mxGeometry>
        </mxCell>
        <mxCell id="124" value="" style="edgeStyle=elbowEdgeStyle;elbow=horizontal;strokeWidth=3;strokeColor=#0C343D;fontFamily=Helvetica;html=1;" parent="1" source="102" edge="1">
          <mxGeometry x="6.448979591836746" y="830.5" width="131.97278911564624" height="100" as="geometry">
            <mxPoint x="6.448979591836746" y="930.5" as="sourcePoint" />
            <mxPoint x="1161.4149659863942" y="1480.5" as="targetPoint" />
          </mxGeometry>
        </mxCell>
        <mxCell id="127" value="" style="edgeStyle=elbowEdgeStyle;elbow=horizontal;strokeWidth=3;strokeColor=#0C343D;fontFamily=Helvetica;html=1;exitX=1.026;exitY=0.438;exitDx=0;exitDy=0;exitPerimeter=0;" parent="1" source="f_UWW3XsLCHWjXA5f-K4-181" edge="1">
          <mxGeometry x="6.448979591836746" y="830.5" width="131.97278911564624" height="100" as="geometry">
            <mxPoint x="1861" y="1520" as="sourcePoint" />
            <mxPoint x="2010" y="1520" as="targetPoint" />
            <Array as="points">
              <mxPoint x="2000" y="1560" />
            </Array>
          </mxGeometry>
        </mxCell>
        <mxCell id="129" value="" style="edgeStyle=elbowEdgeStyle;elbow=horizontal;strokeWidth=3;strokeColor=#0C343D;fontFamily=Helvetica;html=1;exitX=1;exitY=0.5;exitDx=0;exitDy=0;entryX=0;entryY=0.5;entryDx=0;entryDy=0;" parent="1" source="f_UWW3XsLCHWjXA5f-K4-172" target="109" edge="1">
          <mxGeometry x="6.448979591836746" y="830.5" width="131.97278911564624" height="100" as="geometry">
            <mxPoint x="6.448979591836746" y="930.5" as="sourcePoint" />
            <mxPoint x="1960" y="1255" as="targetPoint" />
            <Array as="points">
              <mxPoint x="1935" y="1240" />
            </Array>
          </mxGeometry>
        </mxCell>
        <mxCell id="132" value="" style="edgeStyle=elbowEdgeStyle;elbow=horizontal;strokeWidth=3;strokeColor=#0C343D;fontFamily=Helvetica;html=1;" parent="1" target="105" edge="1">
          <mxGeometry x="6.448979591836746" y="830.5" width="131.97278911564624" height="100" as="geometry">
            <mxPoint x="1288.4149659863942" y="1280.5" as="sourcePoint" />
            <mxPoint x="138.421768707483" y="830.5" as="targetPoint" />
          </mxGeometry>
        </mxCell>
        <mxCell id="135" value="" style="edgeStyle=elbowEdgeStyle;elbow=horizontal;strokeWidth=3;strokeColor=#0C343D;fontFamily=Helvetica;html=1;" parent="1" target="111" edge="1">
          <mxGeometry x="6.448979591836746" y="830.5" width="131.97278911564624" height="100" as="geometry">
            <mxPoint x="1260" y="1220" as="sourcePoint" />
            <mxPoint x="138.421768707483" y="830.5" as="targetPoint" />
          </mxGeometry>
        </mxCell>
        <mxCell id="136" value="" style="edgeStyle=elbowEdgeStyle;elbow=horizontal;strokeWidth=3;strokeColor=#0C343D;fontFamily=Helvetica;html=1;exitX=0.5;exitY=1;exitDx=0;exitDy=0;entryX=0.5;entryY=0;entryDx=0;entryDy=0;" parent="1" source="111" target="f_UWW3XsLCHWjXA5f-K4-172" edge="1">
          <mxGeometry x="6.448979591836746" y="830.5" width="131.97278911564624" height="100" as="geometry">
            <mxPoint x="6.448979591836746" y="930.5" as="sourcePoint" />
            <mxPoint x="1880" y="1160" as="targetPoint" />
          </mxGeometry>
        </mxCell>
        <mxCell id="140" value="" style="group" parent="1" vertex="1" connectable="0">
          <mxGeometry x="244" y="890.5" width="646.6666666666666" height="40" as="geometry" />
        </mxCell>
        <mxCell id="141" value="客户" style="strokeColor=#BAC8D3;fillColor=#5d7f99;fontSize=19;strokeWidth=2;fontFamily=Helvetica;html=1;labelBackgroundColor=none;fontColor=#FFFFFF;" parent="140" vertex="1">
          <mxGeometry width="646.6656362699642" height="40" as="geometry" />
        </mxCell>
        <mxCell id="142" value="代销理财系统" style="strokeColor=#BAC8D3;fillColor=#5d7f99;fontSize=19;strokeWidth=2;fontFamily=Helvetica;html=1;labelBackgroundColor=none;fontColor=#FFFFFF;" parent="140" vertex="1">
          <mxGeometry x="646.6656362699642" width="646.6656362699642" height="40" as="geometry" />
        </mxCell>
        <mxCell id="143" value="二类户系统" style="strokeColor=#BAC8D3;fillColor=#5d7f99;fontSize=19;strokeWidth=2;fontFamily=Helvetica;html=1;labelBackgroundColor=none;fontColor=#FFFFFF;" parent="140" vertex="1">
          <mxGeometry x="1293.3312725399282" width="646.6666666666666" height="40" as="geometry" />
        </mxCell>
        <mxCell id="f_UWW3XsLCHWjXA5f-K4-157" value="&lt;font style=&quot;font-size: 32px&quot;&gt;撤单&lt;/font&gt;" style="text;html=1;strokeColor=none;fillColor=none;align=center;verticalAlign=middle;whiteSpace=wrap;rounded=0;" vertex="1" parent="1">
          <mxGeometry x="505" y="942.25" width="160" height="70" as="geometry" />
        </mxCell>
        <mxCell id="f_UWW3XsLCHWjXA5f-K4-163" value="&lt;span&gt;&lt;font style=&quot;font-size: 27px&quot;&gt;查询系统标识&lt;/font&gt;&lt;/span&gt;" style="text;html=1;strokeColor=none;fillColor=none;align=center;verticalAlign=middle;whiteSpace=wrap;rounded=0;" vertex="1" parent="1">
          <mxGeometry x="1083.91" y="930" width="176.09" height="110" as="geometry" />
        </mxCell>
        <mxCell id="f_UWW3XsLCHWjXA5f-K4-164" value="" style="rhombus;whiteSpace=wrap;html=1;fillColor=#23445D;" vertex="1" parent="1">
          <mxGeometry x="1068.42" y="1105.5" width="191" height="239" as="geometry" />
        </mxCell>
        <mxCell id="f_UWW3XsLCHWjXA5f-K4-165" value="&lt;font style=&quot;font-size: 23px&quot;&gt;是否为二类户&lt;/font&gt;" style="text;html=1;strokeColor=none;fillColor=none;align=center;verticalAlign=middle;whiteSpace=wrap;rounded=0;" vertex="1" parent="1">
          <mxGeometry x="1091.2900000000002" y="1184.5" width="156.09" height="70" as="geometry" />
        </mxCell>
        <mxCell id="f_UWW3XsLCHWjXA5f-K4-166" value="" style="endArrow=classic;html=1;entryX=0.5;entryY=0;entryDx=0;entryDy=0;strokeWidth=3;" edge="1" parent="1" target="f_UWW3XsLCHWjXA5f-K4-164">
          <mxGeometry width="50" height="50" relative="1" as="geometry">
            <mxPoint x="1164" y="1042" as="sourcePoint" />
            <mxPoint x="1140" y="1180" as="targetPoint" />
          </mxGeometry>
        </mxCell>
        <mxCell id="f_UWW3XsLCHWjXA5f-K4-167" value="" style="edgeStyle=elbowEdgeStyle;elbow=horizontal;strokeWidth=3;strokeColor=#0C343D;fontFamily=Helvetica;html=1;" edge="1" parent="1">
          <mxGeometry x="-544.3410204081632" y="695.5" width="131.97278911564624" height="100" as="geometry">
            <mxPoint x="1163.21" y="1340" as="sourcePoint" />
            <mxPoint x="1163.21" y="1440" as="targetPoint" />
          </mxGeometry>
        </mxCell>
        <mxCell id="f_UWW3XsLCHWjXA5f-K4-168" value="&lt;font style=&quot;font-size: 26px&quot;&gt;调用其他系统&lt;/font&gt;" style="text;html=1;strokeColor=none;fillColor=none;align=center;verticalAlign=middle;whiteSpace=wrap;rounded=0;" vertex="1" parent="1">
          <mxGeometry x="1050" y="1440" width="220" height="90" as="geometry" />
        </mxCell>
        <mxCell id="f_UWW3XsLCHWjXA5f-K4-169" value="&lt;font style=&quot;font-size: 21px&quot;&gt;否&lt;/font&gt;" style="text;html=1;strokeColor=none;fillColor=none;align=center;verticalAlign=middle;whiteSpace=wrap;rounded=0;" vertex="1" parent="1">
          <mxGeometry x="1070" y="1370" width="80" height="50" as="geometry" />
        </mxCell>
        <mxCell id="f_UWW3XsLCHWjXA5f-K4-170" value="&lt;font style=&quot;font-size: 21px&quot;&gt;是&lt;/font&gt;" style="text;html=1;strokeColor=none;fillColor=none;align=center;verticalAlign=middle;whiteSpace=wrap;rounded=0;" vertex="1" parent="1">
          <mxGeometry x="1360" y="1155.5" width="80" height="50" as="geometry" />
        </mxCell>
        <mxCell id="f_UWW3XsLCHWjXA5f-K4-171" value="&lt;font style=&quot;font-size: 26px&quot;&gt;查询冻结登记薄&lt;/font&gt;" style="text;html=1;strokeColor=none;fillColor=none;align=center;verticalAlign=middle;whiteSpace=wrap;rounded=0;" vertex="1" parent="1">
          <mxGeometry x="1680.96" y="940.5" width="200" height="80" as="geometry" />
        </mxCell>
        <mxCell id="f_UWW3XsLCHWjXA5f-K4-172" value="" style="rhombus;whiteSpace=wrap;html=1;fillColor=#23445D;" vertex="1" parent="1">
          <mxGeometry x="1706.46" y="1165.5" width="149" height="179" as="geometry" />
        </mxCell>
        <mxCell id="f_UWW3XsLCHWjXA5f-K4-173" value="&lt;font style=&quot;font-size: 24px&quot;&gt;该冻结记录是否存在&lt;/font&gt;" style="text;html=1;strokeColor=none;fillColor=none;align=center;verticalAlign=middle;whiteSpace=wrap;rounded=0;" vertex="1" parent="1">
          <mxGeometry x="1735.96" y="1195" width="90" height="120" as="geometry" />
        </mxCell>
        <mxCell id="f_UWW3XsLCHWjXA5f-K4-176" value="&lt;font style=&quot;font-size: 27px&quot;&gt;否&lt;/font&gt;" style="text;html=1;strokeColor=none;fillColor=none;align=center;verticalAlign=middle;whiteSpace=wrap;rounded=0;" vertex="1" parent="1">
          <mxGeometry x="1900" y="1230" width="40" height="20" as="geometry" />
        </mxCell>
        <mxCell id="f_UWW3XsLCHWjXA5f-K4-177" value="&lt;font style=&quot;font-size: 25px&quot;&gt;抛出异常&lt;/font&gt;" style="text;html=1;strokeColor=none;fillColor=none;align=center;verticalAlign=middle;whiteSpace=wrap;rounded=0;" vertex="1" parent="1">
          <mxGeometry x="2020" y="1230" width="110" height="50" as="geometry" />
        </mxCell>
        <mxCell id="f_UWW3XsLCHWjXA5f-K4-178" value="" style="endArrow=classic;html=1;strokeWidth=3;exitX=0.5;exitY=1;exitDx=0;exitDy=0;entryX=0.381;entryY=1.053;entryDx=0;entryDy=0;entryPerimeter=0;" edge="1" parent="1" source="f_UWW3XsLCHWjXA5f-K4-172" target="86">
          <mxGeometry width="50" height="50" relative="1" as="geometry">
            <mxPoint x="1750" y="1420" as="sourcePoint" />
            <mxPoint x="1800" y="1370" as="targetPoint" />
          </mxGeometry>
        </mxCell>
        <mxCell id="f_UWW3XsLCHWjXA5f-K4-179" value="&lt;font style=&quot;font-size: 27px&quot;&gt;是&lt;/font&gt;" style="text;html=1;strokeColor=none;fillColor=none;align=center;verticalAlign=middle;whiteSpace=wrap;rounded=0;" vertex="1" parent="1">
          <mxGeometry x="1734" y="1380" width="40" height="20" as="geometry" />
        </mxCell>
        <mxCell id="f_UWW3XsLCHWjXA5f-K4-180" value="" style="rhombus;whiteSpace=wrap;html=1;fillColor=#23445D;" vertex="1" parent="1">
          <mxGeometry x="1706.46" y="1430.5" width="149" height="179" as="geometry" />
        </mxCell>
        <mxCell id="f_UWW3XsLCHWjXA5f-K4-181" value="&lt;font style=&quot;font-size: 25px&quot;&gt;是否已解冻&lt;/font&gt;" style="text;html=1;strokeColor=none;fillColor=none;align=center;verticalAlign=middle;whiteSpace=wrap;rounded=0;" vertex="1" parent="1">
          <mxGeometry x="1720" y="1480" width="130" height="90" as="geometry" />
        </mxCell>
        <mxCell id="f_UWW3XsLCHWjXA5f-K4-182" value="" style="strokeColor=#FFFFFF;fillColor=#BAC8D3;fontSize=18;strokeWidth=2;fontFamily=Helvetica;html=1;opacity=90;" vertex="1" parent="1">
          <mxGeometry x="244" y="1430.5" width="646.6666666666666" height="100" as="geometry" />
        </mxCell>
        <mxCell id="f_UWW3XsLCHWjXA5f-K4-184" value="" style="strokeColor=#FFFFFF;fillColor=#BAC8D3;fontSize=18;strokeWidth=2;fontFamily=Helvetica;html=1;opacity=90;" vertex="1" parent="1">
          <mxGeometry x="244" y="1630.5" width="646.6666666666666" height="100" as="geometry" />
        </mxCell>
        <mxCell id="f_UWW3XsLCHWjXA5f-K4-185" value="" style="strokeColor=#FFFFFF;fillColor=#BAC8D3;fontSize=18;strokeWidth=2;fontFamily=Helvetica;html=1;opacity=90;shadow=1;" vertex="1" parent="1">
          <mxGeometry x="890.6666666666666" y="1630.5" width="646.6666666666666" height="100" as="geometry" />
        </mxCell>
        <mxCell id="f_UWW3XsLCHWjXA5f-K4-186" value="" style="strokeColor=#FFFFFF;fillColor=#BAC8D3;fontSize=18;strokeWidth=2;fontFamily=Helvetica;html=1;opacity=90;" vertex="1" parent="1">
          <mxGeometry x="1537.3333333333333" y="1630.5" width="646.6666666666666" height="100" as="geometry" />
        </mxCell>
        <mxCell id="f_UWW3XsLCHWjXA5f-K4-188" value="" style="strokeColor=#FFFFFF;fillColor=#BAC8D3;fontSize=18;strokeWidth=2;fontFamily=Helvetica;html=1;opacity=90;" vertex="1" parent="1">
          <mxGeometry x="244" y="1630.5" width="646.6666666666666" height="100" as="geometry" />
        </mxCell>
        <mxCell id="f_UWW3XsLCHWjXA5f-K4-189" value="" style="rounded=1;fillColor=#23445D;strokeColor=none;strokeWidth=2;gradientColor=none;fontFamily=Helvetica;html=1;" vertex="1" parent="1">
          <mxGeometry x="1693.73" y="1710" width="174.46" height="100" as="geometry" />
        </mxCell>
        <mxCell id="f_UWW3XsLCHWjXA5f-K4-190" value="" style="strokeColor=#FFFFFF;fillColor=#BAC8D3;fontSize=18;strokeWidth=2;fontFamily=Helvetica;html=1;opacity=90;" vertex="1" parent="1">
          <mxGeometry x="244" y="1630.5" width="646.6666666666666" height="100" as="geometry" />
        </mxCell>
        <mxCell id="f_UWW3XsLCHWjXA5f-K4-192" value="" style="strokeColor=#FFFFFF;fillColor=#BAC8D3;fontSize=18;strokeWidth=2;fontFamily=Helvetica;html=1;opacity=60;" vertex="1" parent="1">
          <mxGeometry x="244" y="1730.5" width="646.6666666666666" height="100" as="geometry" />
        </mxCell>
        <mxCell id="f_UWW3XsLCHWjXA5f-K4-193" value="" style="strokeColor=#FFFFFF;fillColor=#BAC8D3;fontSize=18;strokeWidth=2;fontFamily=Helvetica;html=1;opacity=60;fontStyle=4" vertex="1" parent="1">
          <mxGeometry x="890.6666666666666" y="1730.5" width="646.6666666666666" height="100" as="geometry" />
        </mxCell>
        <mxCell id="f_UWW3XsLCHWjXA5f-K4-195" value="" style="endArrow=classic;html=1;strokeWidth=3;exitX=0.5;exitY=1;exitDx=0;exitDy=0;" edge="1" parent="1" source="f_UWW3XsLCHWjXA5f-K4-180">
          <mxGeometry width="50" height="50" relative="1" as="geometry">
            <mxPoint x="1740" y="1690" as="sourcePoint" />
            <mxPoint x="1781" y="1710" as="targetPoint" />
          </mxGeometry>
        </mxCell>
        <mxCell id="f_UWW3XsLCHWjXA5f-K4-196" value="&lt;font style=&quot;font-size: 27px&quot;&gt;是&lt;/font&gt;" style="text;html=1;strokeColor=none;fillColor=none;align=center;verticalAlign=middle;whiteSpace=wrap;rounded=0;shadow=1;" vertex="1" parent="1">
          <mxGeometry x="1910" y="1470" width="40" height="40" as="geometry" />
        </mxCell>
        <mxCell id="f_UWW3XsLCHWjXA5f-K4-197" value="&lt;font style=&quot;font-size: 27px&quot;&gt;否&lt;/font&gt;" style="text;html=1;strokeColor=none;fillColor=none;align=center;verticalAlign=middle;whiteSpace=wrap;rounded=0;shadow=1;" vertex="1" parent="1">
          <mxGeometry x="1720" y="1640" width="40" height="40" as="geometry" />
        </mxCell>
        <mxCell id="f_UWW3XsLCHWjXA5f-K4-198" value="&lt;font style=&quot;font-size: 27px&quot;&gt;解冻&lt;/font&gt;" style="text;html=1;strokeColor=none;fillColor=none;align=center;verticalAlign=middle;whiteSpace=wrap;rounded=0;shadow=1;" vertex="1" parent="1">
          <mxGeometry x="1730" y="1720" width="100" height="70" as="geometry" />
        </mxCell>
        <mxCell id="f_UWW3XsLCHWjXA5f-K4-199" value="&lt;font style=&quot;font-size: 27px&quot;&gt;返回结果&lt;/font&gt;" style="text;html=1;strokeColor=none;fillColor=none;align=center;verticalAlign=middle;whiteSpace=wrap;rounded=0;shadow=1;" vertex="1" parent="1">
          <mxGeometry x="2030.75" y="1507.5" width="110" height="32.5" as="geometry" />
        </mxCell>
      </root>
    </mxGraphModel>
  </diagram>
</mxfile>
